<svg width="16" height="17" viewBox="0 0 16 17" fill="none" xmlns="http://www.w3.org/2000/svg">
<path d="M8 7.19434V9.69434" stroke="#A02525" stroke-linecap="round" stroke-linejoin="round"/>
<path d="M7.13451 3.19338L1.63599 12.6929C1.54801 12.8449 1.50161 13.0174 1.50147 13.193C1.50132 13.3687 1.54743 13.5412 1.63516 13.6934C1.7229 13.8455 1.84915 13.9719 2.00123 14.0597C2.1533 14.1476 2.32584 14.1939 2.50147 14.1939H13.4985C13.6741 14.1939 13.8467 14.1476 13.9987 14.0597C14.1508 13.9719 14.2771 13.8455 14.3648 13.6934C14.4525 13.5412 14.4986 13.3687 14.4985 13.193C14.4984 13.0174 14.452 12.8449 14.364 12.6929L8.86545 3.19338C8.77761 3.04162 8.65141 2.91563 8.4995 2.82803C8.3476 2.74044 8.17533 2.69434 7.99998 2.69434C7.82463 2.69434 7.65237 2.74044 7.50046 2.82803C7.34855 2.91563 7.22235 3.04162 7.13451 3.19338V3.19338Z" stroke="#A02525" stroke-linecap="round" stroke-linejoin="round"/>
<path d="M8 12.6943C8.41421 12.6943 8.75 12.3585 8.75 11.9443C8.75 11.5301 8.41421 11.1943 8 11.1943C7.58579 11.1943 7.25 11.5301 7.25 11.9443C7.25 12.3585 7.58579 12.6943 8 12.6943Z" fill="#A02525"/>
</svg>
