<svg width="32" height="32" viewBox="0 0 32 32" fill="none" xmlns="http://www.w3.org/2000/svg">
<g clip-path="url(#clip0_2018_873)">
<path d="M11.9998 14.6667C14.9454 14.6667 17.3332 12.2789 17.3332 9.33333C17.3332 6.38781 14.9454 4 11.9998 4C9.05432 4 6.6665 6.38781 6.6665 9.33333C6.6665 12.2789 9.05432 14.6667 11.9998 14.6667Z" stroke="#333333" stroke-width="2" stroke-linecap="round" stroke-linejoin="round"/>
<path d="M4 28V25.3333C4 23.9188 4.5619 22.5623 5.5621 21.5621C6.56229 20.5619 7.91885 20 9.33333 20H14.6667C16.0812 20 17.4377 20.5619 18.4379 21.5621C19.4381 22.5623 20 23.9188 20 25.3333V28" stroke="#333333" stroke-width="2" stroke-linecap="round" stroke-linejoin="round"/>
<path d="M21.3335 4.17334C22.4807 4.46707 23.4975 5.13427 24.2237 6.06975C24.9498 7.00523 25.344 8.15578 25.344 9.34001C25.344 10.5242 24.9498 11.6748 24.2237 12.6103C23.4975 13.5457 22.4807 14.2129 21.3335 14.5067" stroke="#333333" stroke-width="2" stroke-linecap="round" stroke-linejoin="round"/>
<path d="M28 28V25.3333C27.9932 24.1562 27.5972 23.0144 26.8737 22.0859C26.1502 21.1574 25.1398 20.4943 24 20.2" stroke="#2C3E50" stroke-width="2" stroke-linecap="round" stroke-linejoin="round"/>
</g>
<defs>
<clipPath id="clip0_2018_873">
<rect width="32" height="32" fill="white"/>
</clipPath>
</defs>
</svg>
